<?xml version="1.0" encoding="utf-8"?>
<!-- Generator: Adobe Illustrator 27.5.0, SVG Export Plug-In . SVG Version: 6.00 Build 0)  -->
<svg version="1.1" id="Layer_2_00000069374977001592408570000001734097868662949041_"
	 xmlns="http://www.w3.org/2000/svg" xmlns:xlink="http://www.w3.org/1999/xlink" x="0px" y="0px" viewBox="0 0 555.9 88.2" xml:space="preserve">
<g>
	<path d="M40.5,58.5c13.1-18.3,34.8-64.4,24.8-8c-4.3,33.3-0.2,30.9,18.8,6.7c0.7-0.9,2.2-1.1,2.8-2.1c2.1-3.9,9.6-5.9,9.1,0.6
		c3.8-0.8,7.3-2.3,10.9-3c2.4-2.9,5.9,0.3,4.3,3.4c9.3-5.6,8.6,4.7,12.8,3.8c3.2-2.1,5.6-5,8.9-6.9c1.8-0.7,0.3-2.9,0.5-4.3
		c1.5-4.6,6-1.2,2.6,3.5c1.6,2.6-0.6,6.1-0.5,9.1c0.1,0,0.2,0.1,0.2,0.1c4.8-3.3,9.6-18.5,16.6-12c0.6,0.9,0.7,1.9,0.1,2.6
		c-1.5,2-4.1-1.3-5.2,1.3c-2,2.6-4.3,10.1,1.4,8.7c7.8-0.8,11.3-15.6,18.2-11c0.4,0.4,0.7,0.4,1.1-0.1c0.9-1.2,3.1-2,3.6,0
		c-1.6,19.8,4.5,3.6,9.1,6.1c1.2,5.1-14.7,12.5-12.5-2.2c-2.6,2.4-11.6,15.6-13.2,6.7c-4.3,3.3-12.3,5.2-13.4-2.1
		c-5.4,7.8-10.5,7-9.7-3c-14.9,15.2-10.2-1.7-18.3,1.8c-5.1,4-7.8,4.8-7.3-2.9c-3.6,2.2-8.4,1.8-11.6,4.1c-3.5,7.3-9,6.8-8.8-1.8
		C55.7,108,54.9,62.9,62.1,32.2C24.4,97.1,40.2,39.7,36,6.9C22.9,24.7,15.7,46.4,8.9,67.2C6.7,70.8,6,90.3,1.1,88
		c-2.5-2.3,0.3-6.8,0.4-9.8c2.2-9.8,5.7-19.3,8.8-28.8c2.7-8,17.5-52.4,28.6-43.8C43.2,22.4,38.3,41,40,58.4
		C40.2,58.4,40.3,58.4,40.5,58.5z M164.4,54.5c-1.5,0.1-4.2,3.4-4.4,5.2C161.5,57.8,163.4,56.4,164.4,54.5L164.4,54.5z M90.2,57v3.1
		C92,58.2,92,58,90.2,57z"/>
	<path d="M249.1,22.7c13.1,1.4,28,3.4,36.6,14.6c0.1-0.1,0.2-0.1,0.4-0.2c1.5-8.8,4.5-17.4,4.7-26.4c0-1.4,0.4-1.8,2-2.1
		c3.2-0.2,2.3,4.1,2.1,6.1c-1.4,9.8-5,19.9-4.4,29.8c4.3,10.8,2,23.3-3.8,33.2c-0.8,1.3-2.7,3.5-3.8,1.3c-3.5-12,3.2-26.1,1.8-38.1
		c-4.7-6.3-11.1-10-18.6-11.8c-18.3-2.5-33.1-4.7-6.1-15c18-6.7,70.2-27.6,78.7-1.4c-0.5,1.6-1.1,3.6-2.2,5
		c-0.8,0.3-1.7,0.4-1.6-0.8c6.4-27.9-74.4-1.4-85.7,5.5C249.1,22.5,249.2,22.6,249.1,22.7L249.1,22.7z M287.5,68
		c1.5-2.5,2.8-13.1,1.4-15.3C288.4,57.9,287.9,62.9,287.5,68z"/>
	<path d="M541.6,51.9c-5.7,4.3-18.5,25.2-15.2,5.1c-4.5,5.1-12.2,13.6-14,1.6c-4.4,2.7-7.2-3.7-10.9-0.6c-3.5,2.8-13.8,15.6-11,3.1
		c-3.9,4.6-10.3,3.6-9.7-3.2c-7.8,10.7-15.2,9-10.8-4.6c0.7-2.7,5.1-2,4.4,0.9c-0.5,2.6-1.4,4.8-1.6,7.4c3-2.4,5.1-5.3,7.9-7.9
		c5.1-2.8,0.7,9.7,5.6,6.9c2.1-2.4,5.5-4.4,6.3-7.6c0.8-2.8,4.4-1.6,3.9,1c-0.4,1.8-0.8,3.4-1.2,5.2c12-11.4,11.8,1.1,17.2-4.1
		c0.1-7.2,2.2-14.1,4.1-20.9c-3.6-0.7-13,2.8-14.7-0.4c-0.5-1.8,1.6-2.2,3-2.2c3.2-0.7,11,1.5,12.6-1.2c1.7-3.1,1.2-12.5,6-11.4
		c2.5,2.1-2,9.4-2.3,12.5c12.2-1,11,2.6,12.9-10.2c0.6-2.8,4.9-1.5,4.1,1.1c-2.9,12.6-5.8,25.2-8.6,37.8c0.1,0,0.1,0.1,0.2,0.1
		c5.1-5.4,15.1-19,16.3-3.4c0.2,1.5,0.6,1.7,1.9,0.8c2.3-1.2,4-4.8,6.9-4c-0.1-0.5-0.4-1.5,0.5-1.3c2.5,2.2-3.7,5.3-4.8,7.2
		C544.1,64.2,542.1,57,541.6,51.9L541.6,51.9z M531.6,33.7c-2.3,0.2-10.6-1-11.4,1.1c-1.3,8.4-4.6,16.8-3.7,25.4
		c0.1,2.3,2,0.6,2.9-0.1C530.6,50.3,528.5,47.4,531.6,33.7L531.6,33.7z"/>
	<path d="M417.4,86.6c-31.2-2.1-14.9-50.6-2.2-65.7C424,10.4,437.7,0.4,452,2.7c3.6,0.8,9.3,5.7,6.9,9.4c-4,2-7.6-6.5-14.3-4.5
		c-35.4,2.3-62,91.2-15.5,72c11.2-5.1,20.5-12.5,27.8-22.4c3.1-3.5,5-9.3,9.3-11.2C462.8,63.3,435.9,86.1,417.4,86.6L417.4,86.6z"/>
	<path d="M360.6,58.3c-4.5,3.2-7.3-3.4-11-0.5c-5.1,4.2-14.5,16.4-10.8,1c-4.5,1.9-7.6-4.6-11.4-0.2c-9.8,9.9-12.5,12.3-8.6-3.8
		c-3.8,2.1-8.3,2.5-12,4.2c-1.1,2-2.3,4-4.4,5c-6.4,2-6-12.4,2-12.8c2.2-0.5,3.7,2.1,3.4,4.3c3.8-0.9,7.2-2.1,10.9-2.9
		c6-4.6,4.5,3,3.3,6.5c12.5-11,9.2-0.7,17-3.6c1.6-1.1,1-5,3.8-4.3c3,1.3,0.4,5.4,0.2,7.8c12.8-11,9.3-0.5,17-3.6
		c1.1-1.7,1.2-4.1,2.2-5.9c0.8-2.4,4.9-3.8,6.1-1c2.2,6-4.1,6.2-3.5,9.2c0.4,1.5,0.1,5.3,2.6,3.5c2.6-2.1,5.6-4.7,6.3-8.1
		c-0.2-3.5,5.6-3.7,5.1-0.2c-0.5,1.7-1,3,0.8,4.3c2.3-1.1,4.9-6.1,7.6-4.4c0.8,2.8-4,4.4-5.5,6.4c-0.4,0.4-0.6,0.7-0.4,1.3
		c2.2,5.7-0.9,10.5-5,12.9c-12.7,4.3-4.2-10,0.5-13.7c-0.6-0.8-1.2-1.5-1.8-2.3C371.3,64,362.5,69.3,360.6,58.3L360.6,58.3z
		 M379,62.3c-2.9,2.1-6.3,5.4-6.5,9.1C377.1,71.4,379.8,66.8,379,62.3z M302,60l0.2,0.1c0.9-1.2,2.4-2.6,0-3
		C302.1,58.1,302,59.1,302,60L302,60z"/>
	<path d="M206.8,48.5c5.8-8.6,6.8-22.9,14.4-29.5c3.6,2.3-3.6,12.4-4.2,16.1c-3.7,9.2-5.5,19-6.7,28.8c-1.2,4.9,0.6,15.2-2,18.7
		c-4.7-5.8-0.9-21.4-1-28.8c-13.2,22.8-24.7,4.7-8.8-6.4C201.3,45.8,204.2,45.9,206.8,48.5z M195.4,61.8
		C212.8,51.1,196.9,45.1,195.4,61.8L195.4,61.8z"/>
	<path d="M212.9,56.8c-0.5-4.3,4.3-14.3,8.1-7.6c0.7,2.5-0.4,5.2-2.8,6.5c-0.7,0.4-1.1,0.8-0.9,1.7c0.2,10.1,7.3-1.2,9.9-4.2
		C236,48.7,215.7,78.6,212.9,56.8L212.9,56.8z"/>
	<path d="M96.4,43.8c1.4-2.8,3.2-5.5,4.7-8.3c1-1.4,2.9,1.1,4.2,1.5c-1.7,2.8-3.3,5.6-4.9,8.4C99.1,46.2,97.7,44.3,96.4,43.8z"/>
</g>
</svg>
