<?xml version="1.0" standalone="no"?>
<!DOCTYPE svg PUBLIC "-//W3C//DTD SVG 20010904//EN"
 "http://www.w3.org/TR/2001/REC-SVG-20010904/DTD/svg10.dtd">
<svg version="1.0" xmlns="http://www.w3.org/2000/svg"
 width="960.000000pt" height="960.000000pt" viewBox="0 0 960.000000 960.000000"
 preserveAspectRatio="xMidYMid meet">
<metadata>
Created by potrace 1.14, written by Peter Selinger 2001-2017
</metadata>
<g transform="translate(0.000000,960.000000) scale(0.100000,-0.100000)"
fill="#000000" stroke="none">
<path d="M8150 9534 c-36 -30 -66 -59 -68 -64 -2 -6 -8 -10 -14 -10 -10 0
-273 -261 -344 -340 -17 -19 -70 -84 -117 -145 -48 -60 -101 -127 -117 -147
-17 -20 -30 -39 -30 -42 0 -3 -29 -48 -65 -100 -36 -52 -65 -97 -65 -101 0 -3
-13 -25 -28 -48 -16 -23 -59 -96 -96 -162 -37 -66 -71 -127 -76 -135 -31 -53
-135 -266 -132 -272 1 -4 -1 -8 -6 -8 -4 0 -13 -15 -21 -32 -7 -18 -24 -58
-38 -88 -14 -30 -54 -125 -88 -210 -80 -198 -78 -193 -80 -205 -2 -5 -13 -35
-25 -65 -12 -30 -23 -62 -25 -70 -2 -8 -19 -62 -38 -120 -30 -89 -78 -243 -82
-260 -12 -57 -30 -117 -36 -126 -5 -6 -7 -13 -4 -15 2 -3 0 -22 -6 -43 -6 -21
-12 -46 -15 -55 -2 -9 -8 -36 -15 -61 -6 -25 -13 -56 -15 -70 -3 -14 -9 -41
-14 -60 -5 -19 -12 -50 -15 -69 -3 -19 -7 -37 -9 -40 -2 -3 -7 -28 -10 -55 -4
-27 -9 -52 -11 -56 -2 -4 -7 -29 -10 -56 -4 -27 -8 -56 -10 -64 -6 -20 -14
-71 -30 -180 -4 -25 -9 -58 -12 -75 -2 -16 -6 -48 -9 -70 -2 -22 -6 -50 -8
-62 -3 -12 -8 -57 -11 -100 -4 -43 -9 -80 -10 -83 -2 -3 -6 -44 -10 -90 -3
-47 -8 -107 -10 -135 -26 -278 -35 -820 -21 -1160 13 -321 14 -344 21 -355 3
-5 2 -10 -3 -10 -5 0 -23 39 -41 88 -18 48 -36 96 -41 107 -5 11 -23 58 -40
105 -17 47 -35 94 -40 105 -28 69 -53 135 -171 445 -72 190 -141 372 -154 405
-43 115 -87 230 -95 250 -4 11 -22 56 -39 100 -17 44 -36 94 -42 110 -7 17
-13 35 -14 40 -3 9 -46 124 -65 170 -5 11 -12 29 -16 40 -68 183 -154 409
-164 430 -5 11 -19 47 -30 80 -12 33 -25 69 -30 80 -5 11 -11 27 -12 35 -2 8
-5 17 -8 20 -3 3 -20 46 -38 95 -19 50 -36 97 -39 105 -4 8 -7 17 -8 20 -1 3
-7 19 -14 35 -6 17 -21 55 -33 85 -28 75 -36 96 -47 123 -5 12 -19 49 -31 82
-12 33 -26 69 -31 80 -5 11 -18 47 -30 80 -11 33 -27 74 -34 90 -12 26 -61
156 -130 340 -12 33 -34 89 -48 125 -14 36 -39 103 -57 150 -18 47 -36 94 -40
105 -16 37 -75 190 -76 195 0 3 -6 19 -13 35 -6 17 -25 65 -42 108 -16 44 -38
94 -48 112 -114 213 -404 227 -537 25 -50 -76 -63 -195 -30 -275 8 -19 17 -54
20 -78 3 -23 8 -51 10 -63 2 -11 7 -54 11 -95 3 -41 8 -90 10 -109 2 -19 6
-82 10 -140 4 -58 8 -134 11 -170 4 -68 11 -242 19 -500 8 -221 7 -1116 0
-1365 -14 -471 -12 -434 -30 -795 -6 -117 -14 -260 -20 -350 -3 -41 -7 -102
-10 -135 -7 -112 -16 -230 -20 -270 -2 -22 -6 -71 -10 -110 -4 -38 -8 -90 -11
-115 -4 -44 -14 -150 -19 -200 -2 -14 -6 -56 -10 -95 -3 -38 -8 -81 -10 -95
-3 -14 -7 -47 -10 -75 -3 -27 -7 -63 -10 -80 -2 -16 -7 -52 -10 -80 -3 -27 -7
-61 -10 -75 -2 -14 -7 -50 -10 -80 -3 -30 -8 -62 -10 -70 -2 -8 -7 -35 -10
-60 -3 -25 -10 -70 -15 -100 -11 -65 -18 -111 -26 -163 -3 -21 -7 -44 -8 -50
-3 -14 -14 -69 -22 -112 -3 -16 -7 -43 -10 -60 -3 -16 -7 -37 -10 -45 -3 -8
-8 -31 -10 -50 -11 -83 -105 -470 -151 -620 -15 -47 -27 -87 -28 -90 -4 -21
-51 -157 -81 -235 -4 -11 -8 -22 -9 -25 -17 -49 -79 -186 -128 -280 -95 -184
-221 -331 -328 -385 -77 -40 -253 -77 -371 -79 -27 -1 -48 -3 -48 -6 0 -12
-343 1 -420 15 -14 3 -41 8 -60 11 -19 3 -41 7 -49 10 -8 2 -30 7 -50 10 -20
3 -44 10 -53 15 -10 5 -18 8 -18 5 0 -3 -26 4 -57 15 -63 22 -120 56 -171 103
-37 34 -122 148 -122 163 0 6 -7 24 -15 41 -24 47 -43 162 -39 233 10 168 113
346 252 433 145 91 333 114 481 59 75 -27 179 -91 205 -126 37 -49 56 -104 56
-163 0 -128 -45 -154 -183 -106 -67 24 -185 87 -199 107 -4 5 -9 7 -11 5 -2
-3 -18 -24 -35 -46 -18 -23 -32 -45 -32 -48 0 -4 -5 -12 -10 -19 -29 -34 -100
-138 -100 -147 0 -6 -6 -13 -14 -16 -8 -3 -20 -19 -26 -35 -7 -16 -15 -29 -19
-29 -4 0 -15 -15 -26 -32 -10 -18 -21 -35 -24 -38 -3 -3 -20 -26 -38 -52 l-32
-47 34 -25 c19 -14 36 -26 38 -26 3 0 35 -19 73 -41 37 -23 72 -42 78 -43 6
-1 25 -9 42 -18 39 -21 159 -63 204 -72 19 -3 46 -9 60 -12 33 -8 225 -9 270
-1 62 11 78 15 99 27 12 6 21 8 21 5 0 -8 99 43 149 78 161 110 275 306 298
512 26 227 -26 442 -149 624 -42 61 -141 163 -192 198 -22 15 -43 30 -46 33
-38 38 -286 149 -380 170 -19 5 -46 11 -59 14 -111 26 -327 26 -451 1 -14 -3
-41 -8 -60 -11 -19 -4 -39 -9 -45 -13 -5 -3 -17 -7 -26 -8 -64 -10 -281 -123
-369 -192 -109 -85 -244 -240 -301 -346 -38 -68 -80 -160 -86 -184 -3 -14 -10
-32 -16 -38 -5 -7 -7 -13 -3 -13 3 0 1 -12 -5 -27 -22 -57 -24 -84 -24 -333 1
-253 1 -256 29 -340 34 -103 92 -221 154 -315 39 -59 206 -237 253 -270 8 -5
35 -24 59 -41 73 -51 186 -107 240 -119 3 -1 31 -9 62 -19 31 -9 69 -19 84
-22 15 -3 36 -10 46 -15 11 -6 26 -8 33 -5 7 2 16 2 19 -2 4 -3 12 -7 19 -8 7
-1 30 -5 52 -9 42 -7 54 -9 120 -19 111 -16 175 -20 345 -20 159 0 233 3 360
19 14 2 41 6 60 10 19 4 44 8 55 10 40 6 114 22 190 41 44 10 189 75 193 85 2
5 8 7 13 3 5 -3 9 0 9 5 0 6 6 11 13 11 22 0 166 112 234 181 34 35 87 96 118
134 55 69 165 239 165 255 0 5 3 10 8 12 18 8 203 422 217 488 2 8 17 53 33
100 54 153 148 483 153 535 0 2 5 19 10 37 5 18 12 49 15 68 3 19 8 38 10 41
2 3 6 21 9 40 3 19 13 64 21 101 8 36 17 79 19 95 2 15 4 28 5 28 1 0 3 9 5
20 2 11 7 36 11 55 3 19 8 44 10 55 1 11 5 31 8 45 3 14 9 45 12 70 3 25 8 54
10 65 9 44 14 72 19 115 3 25 7 52 10 60 2 8 6 35 9 60 3 25 8 54 10 65 2 11
7 45 10 75 4 30 8 66 11 80 5 33 15 113 20 170 3 25 7 61 10 80 3 19 8 55 11
80 3 25 7 61 9 80 2 19 7 64 10 100 4 36 8 81 11 100 2 19 6 66 9 105 3 38 8
90 10 115 3 25 8 77 11 116 2 38 7 88 9 110 3 21 7 77 10 124 2 47 7 119 10
160 9 109 22 357 30 539 2 58 7 159 9 225 10 219 18 506 21 780 2 149 4 273 5
276 0 3 25 -60 56 -140 30 -80 59 -154 64 -165 4 -11 18 -47 30 -80 12 -33 26
-69 30 -80 5 -11 24 -60 43 -110 19 -49 38 -99 42 -110 5 -11 9 -22 10 -25 1
-3 5 -14 9 -25 5 -11 21 -56 38 -100 16 -44 34 -89 39 -100 9 -22 53 -137 54
-145 1 -3 9 -23 19 -45 10 -22 19 -47 21 -55 2 -9 15 -45 30 -80 15 -36 28
-69 29 -75 4 -13 12 -37 43 -115 54 -140 72 -188 101 -265 17 -44 58 -152 92
-240 33 -88 74 -196 91 -240 17 -44 36 -96 44 -115 22 -58 67 -174 75 -195 13
-31 23 -60 24 -65 1 -3 15 -39 31 -80 16 -41 30 -77 31 -80 0 -3 4 -12 7 -20
4 -8 22 -58 42 -110 19 -52 39 -104 44 -115 5 -11 14 -33 20 -50 6 -16 16 -43
22 -60 7 -16 13 -32 14 -35 1 -3 7 -18 13 -33 7 -16 12 -30 12 -32 0 -2 5 -16
12 -32 6 -15 12 -31 12 -35 1 -3 4 -10 9 -14 4 -4 7 -14 7 -21 0 -8 8 -33 19
-56 10 -23 41 -103 69 -177 84 -224 122 -324 132 -345 5 -11 38 -96 74 -190
35 -93 70 -183 77 -200 6 -16 13 -34 14 -40 3 -10 83 -220 100 -260 5 -11 9
-22 9 -25 1 -3 16 -43 34 -90 18 -47 40 -103 49 -125 8 -22 19 -49 23 -60 5
-11 20 -49 33 -85 13 -36 28 -74 32 -85 5 -11 9 -22 10 -25 4 -11 17 -46 25
-65 4 -11 27 -69 50 -130 23 -60 46 -119 51 -130 5 -11 15 -38 23 -60 7 -22
35 -92 60 -155 26 -63 49 -122 51 -130 2 -8 11 -33 21 -55 10 -22 18 -42 19
-45 0 -5 19 -53 40 -105 16 -38 28 -69 29 -75 1 -3 19 -37 40 -76 28 -52 48
-76 75 -90 20 -10 58 -31 84 -46 26 -16 62 -28 80 -28 38 0 247 66 263 83 6 7
29 46 51 87 39 72 40 78 37 157 -1 45 -6 88 -10 95 -5 7 -10 22 -11 33 -2 11
-8 31 -13 45 -5 14 -11 34 -13 45 -2 11 -9 33 -15 48 -7 16 -12 32 -12 37 0 5
-6 29 -14 52 -7 24 -26 86 -41 138 -15 52 -34 115 -42 140 -8 25 -16 53 -18
63 -2 10 -22 82 -44 160 -43 151 -118 442 -128 492 -9 48 -11 60 -14 60 -1 0
-3 9 -5 20 -2 11 -17 77 -34 147 -16 70 -32 138 -34 150 -2 13 -9 43 -15 68
-5 25 -12 59 -15 75 -6 29 -11 55 -21 105 -3 14 -9 50 -15 80 -6 30 -12 66
-15 80 -3 14 -7 36 -9 50 -2 14 -14 81 -25 150 -22 128 -37 219 -46 280 -2 19
-7 46 -9 60 -7 41 -17 112 -21 160 -3 25 -7 61 -10 80 -3 19 -7 55 -10 80 -2
25 -6 63 -9 85 -3 22 -8 67 -11 100 -3 33 -8 80 -10 105 -17 172 -33 444 -39
637 -2 55 -7 106 -10 111 -3 6 -2 13 2 16 5 3 8 18 6 33 -7 63 -8 113 -2 118
3 3 2 23 -3 43 -4 21 -4 41 1 46 5 5 5 16 0 27 -6 10 -6 20 -1 23 4 3 5 24 1
46 -4 21 -5 42 -2 44 2 3 6 72 8 154 1 81 5 175 8 208 2 32 8 104 12 159 3 55
8 114 10 130 1 17 5 57 8 90 6 65 12 114 21 185 4 25 8 59 10 75 5 44 16 116
21 145 11 59 17 106 18 123 0 9 4 17 9 17 4 0 6 4 3 9 -4 5 12 96 34 203 23
106 43 204 46 218 2 14 7 32 10 40 3 8 8 26 10 38 24 126 178 615 239 757 7
17 39 93 71 170 57 139 216 464 274 560 16 28 33 57 37 65 4 8 34 59 67 113
34 55 66 106 71 115 6 10 30 46 55 81 25 35 52 73 60 85 22 32 96 124 148 185
99 115 378 386 428 414 19 11 18 17 -12 52 -14 17 -35 43 -47 58 -12 15 -30
38 -40 50 -10 12 -28 35 -40 50 -12 16 -27 34 -32 40 -10 11 -98 122 -169 211
-15 20 -31 36 -35 36 -3 -1 -35 -26 -71 -56z"/>
</g>
</svg>
