<?xml version="1.0" encoding="utf-8"?>
<!-- Generator: Adobe Illustrator 27.5.0, SVG Export Plug-In . SVG Version: 6.00 Build 0)  -->
<svg version="1.1" id="Layer_1" xmlns="http://www.w3.org/2000/svg" xmlns:xlink="http://www.w3.org/1999/xlink" x="0px" y="0px"
	 viewBox="0 0 249.7 248.5" style="enable-background:new 0 0 249.7 248.5;" xml:space="preserve">
<style type="text/css">
	.st0{fill:#C9689A;}
</style>
<path class="st0" d="M0,116.5c0.4-3.9,0.8-7.9,1.3-11.8c5.1-34.8,21.8-62.8,50-83.9C63.8,11.5,77.7,4.6,92.6,0.4
	c3.9-1.1,7.7,0,9.8,3s2.1,6.8-0.5,10.1c-7.8,9.7-13.5,20.9-16.7,33c-5.8,22.1-4.3,43.6,5.3,64.4c10,21.7,26.2,37.4,48.1,46.9
	c16,7,33.6,9.3,50.8,6.7c16.6-2.5,32.3-9.4,45.3-20c2.5-2,5.2-3.6,8.7-2.9c4.1,0.7,6.9,4.6,6.3,8.7c0,0.3-0.1,0.5-0.2,0.8
	c-2.5,10.8-6.5,21.3-11.8,31.1c-9.4,17.5-22.8,32.5-39.1,43.7c-14.6,10-30.5,17.1-47.9,20.2c-41.6,7.5-78.5-2.7-109.9-31.1
	c-20-18.1-32.5-40.7-38.1-67.1c-1.1-5.2-1.5-10.6-2.2-15.9c-0.1-0.8-0.3-1.6-0.4-2.4L0,116.5z"/>
</svg>
