<svg id="Layer_1" data-name="Layer 1" xmlns="http://www.w3.org/2000/svg" viewBox="0 0 249.71 248.51"><defs><style>.cls-1{fill:#676fa3;}</style></defs><path class="cls-1" d="M640.91,529.76c.44-3.94.78-7.9,1.35-11.82q7.69-52.26,50-83.88a127.2,127.2,0,0,1,41.28-20.33c3.89-1.13,7.68,0,9.78,3s2.14,6.77-.55,10.14a88.35,88.35,0,0,0-16.72,33c-5.82,22.1-4.26,43.64,5.33,64.43,10,21.73,26.18,37.36,48.08,46.87a91.67,91.67,0,0,0,50.78,6.66,92.83,92.83,0,0,0,45.32-20.05c2.54-2,5.21-3.64,8.68-2.89a7.58,7.58,0,0,1,6.1,9.48,126.49,126.49,0,0,1-11.78,31.1,124.4,124.4,0,0,1-39.14,43.71c-14.56,10-30.45,17.1-47.86,20.24-41.64,7.51-78.5-2.69-109.91-31.12-20-18.1-32.54-40.71-38.09-67.1-1.09-5.23-1.5-10.61-2.24-15.91-.11-.8-.29-1.58-.44-2.37Z" transform="translate(-640.91 -413.31)"/></svg>