<svg id="Layer_1" data-name="Layer 1" xmlns="http://www.w3.org/2000/svg" viewBox="0 0 351.12 390.11"><defs><style>.cls-1{fill:#686fa3;}</style></defs><g id="layer1"><g id="g1400"><path id="path4714" class="cls-1" d="M277,103A154,154,0,1,0,431,257.05,154,154,0,0,0,277,103Zm0,26.78c71.77,0,130,57,130,127.27h0c0,70.29-58.19,127.27-130,127.27h0c-71.78,0-130-57-130-127.27S205.19,129.78,277,129.78Z" transform="translate(-122.92 -103)"/><path id="rect4721" class="cls-1" d="M391.1,369.08l69.58,80.66c12,13.91,16.8,31.61,10.74,39.55h0c-6.06,7.94-20.7,3.1-32.69-10.8l-69.58-80.67c-12-13.9-16.8-31.61-10.74-39.55h0C364.47,350.34,379.1,355.17,391.1,369.08Z" transform="translate(-122.92 -103)"/></g></g></svg>