<svg id="Layer_1" data-name="Layer 1" xmlns="http://www.w3.org/2000/svg" viewBox="0 0 241.46 241.51"><defs><style>.cls-1{fill:#dfdfdf;}</style></defs><path class="cls-1" d="M1292.84,562c-2,5-5.79,6.68-11,6.5-6.82-.23-13.66,0-20.49-.12a13.53,13.53,0,0,1-5.61-1.3,7.88,7.88,0,0,1-3.91-8.61,8.33,8.33,0,0,1,6.71-6.46,21.19,21.19,0,0,1,3.28-.22c6.68,0,13.36.17,20-.07,5.21-.18,9,1.54,11,6.51Z" transform="translate(-1051.38 -439.37)"/><path class="cls-1" d="M1170.21,680.88c-5-2-6.68-5.79-6.5-11,.23-6.83,0-13.67.12-20.5a13.57,13.57,0,0,1,1.3-5.62,7.87,7.87,0,0,1,8.61-3.9,8.32,8.32,0,0,1,6.45,6.71,21.2,21.2,0,0,1,.23,3.28c0,6.68-.17,13.36.06,20,.18,5.2-1.53,9-6.5,11Z" transform="translate(-1051.38 -439.37)"/><path class="cls-1" d="M1232.81,560.19c-.22,33.28-27.66,60.87-60.71,60.61a60.67,60.67,0,1,1,.13-121.34C1205.66,499.58,1233,527.26,1232.81,560.19Z" transform="translate(-1051.38 -439.37)"/><path class="cls-1" d="M1163.92,459.89c0-4.39-.21-8.8.07-13.18a8,8,0,0,1,7-7.25,8.33,8.33,0,0,1,8.54,4.6,6.08,6.08,0,0,1,.73,2.45c.06,8.94.21,17.89,0,26.82-.11,3.81-3.42,6.7-7,7.11a8.09,8.09,0,0,1-8.72-5.33,13.78,13.78,0,0,1-.63-4.15c-.08-3.69,0-7.38,0-11.07Z" transform="translate(-1051.38 -439.37)"/><path class="cls-1" d="M1071.87,551.81c4.08,0,8.16-.08,12.24,0a8.07,8.07,0,0,1,7.75,5.17,7.8,7.8,0,0,1-1.46,8.56,8.21,8.21,0,0,1-6.47,2.86c-8,0-16,.12-24,0a8.36,8.36,0,0,1-8.54-8.25c0-4.59,3.64-8.18,8.72-8.33,3.92-.11,7.84,0,11.77,0Z" transform="translate(-1051.38 -439.37)"/><path class="cls-1" d="M1259.89,638.63c-.36,4.36-1.77,6.85-4.7,8.3a7.49,7.49,0,0,1-8.4-.82,44,44,0,0,1-4.09-3.88c-4.67-4.65-9.36-9.28-14-14-3.66-3.73-3.75-8.6-.34-11.94s8.13-3.17,11.77.41c5.65,5.55,11.31,11.1,16.76,16.85C1258.44,635.17,1259.23,637.47,1259.89,638.63Z" transform="translate(-1051.38 -439.37)"/><path class="cls-1" d="M1118,496.89c-.17,4.55-1.66,7-4.55,8.49a7.47,7.47,0,0,1-8.42-.77,47,47,0,0,1-4.11-3.88c-4.68-4.66-9.38-9.3-14-14-3.62-3.71-3.68-8.69-.28-12s8.1-3.1,11.77.52c5.65,5.58,11.32,11.14,16.79,16.89C1116.65,493.7,1117.42,495.92,1118,496.89Z" transform="translate(-1051.38 -439.37)"/><path class="cls-1" d="M1226.22,497c.52-1,1.14-3.13,2.5-4.56,5.69-6,11.56-11.78,17.46-17.55a8.08,8.08,0,1,1,11.55,11.3q-8.6,8.91-17.5,17.52c-2.54,2.48-5.72,3.41-9.11,1.88C1228,504.2,1226.4,501.59,1226.22,497Z" transform="translate(-1051.38 -439.37)"/><path class="cls-1" d="M1118,623.28c-.54,1-1.19,3.13-2.56,4.56-5.7,6-11.56,11.78-17.47,17.54a8.07,8.07,0,0,1-11.58-11.23q8.75-9.07,17.84-17.83a7.59,7.59,0,0,1,8.93-1.65C1116.25,616.12,1117.81,618.74,1118,623.28Z" transform="translate(-1051.38 -439.37)"/></svg>