<svg id="Layer_1" data-name="Layer 1" xmlns="http://www.w3.org/2000/svg" viewBox="0 0 255.12 99.71"><defs><style>.cls-1{fill:none;stroke:#eb5a5c;stroke-miterlimit:10;stroke-width:6px;}</style></defs><path class="cls-1" d="M118.6,337.7c13.94-6.71,13-71.91,10.84-75.88-2.67-4.86,22,76.52,25,75.88,2.26-.47-11.76-42.38,9-75.58a69.31,69.31,0,0,1,7.48-9.84" transform="translate(-117.3 -250.26)"/><path class="cls-1" d="M164,308.37c-.2-1.29-.37-3.68-.51-5-.62-5.9-.65-12.11.62-17.5a54.21,54.21,0,0,1,15.23-26.59" transform="translate(-117.3 -250.26)"/><path class="cls-1" d="M168.28,325.19a97.17,97.17,0,0,1-3.36-12.59" transform="translate(-117.3 -250.26)"/><path class="cls-1" d="M213.44,337.7l1.16-75.58c-18.19-1.38-21.89,0-21.89,0-25.54,6.2-23.82,52.38-14.49,49.13l24.58-2.9c1.42-1.36,5.8,8.22-29.23,29.35" transform="translate(-117.3 -250.26)"/><path class="cls-1" d="M222.73,337.7l1.55-75.58c46.26-3.71,46.84,24.16,48.2,48.36C273.57,330,264,336.07,222.73,337.7Z" transform="translate(-117.3 -250.26)"/><path class="cls-1" d="M282.05,302c1.25,11.83,1.17,33-13.51,39.36" transform="translate(-117.3 -250.26)"/><path class="cls-1" d="M277.77,282.61a54.92,54.92,0,0,1,3.61,14.25" transform="translate(-117.3 -250.26)"/><path class="cls-1" d="M322.27,268.5c-6.12-8.9-12,.31-7.89,4.89,8.14,9,20.48-3.52,12.48-11.27-4.24-4.11-15.54-9-19.48,1.23-10.84,28.18,24.9,71.26,25.46,73.06.07.22-8-9.8-29.13-36.81C293.61,286.67,272.23,256.36,274,259c.92,1.41,10.34,16.26,14.45,25.81,5.49,12.74,8.13,52.61-12.85,62.45" transform="translate(-117.3 -250.26)"/><path class="cls-1" d="M372,336.87c-1,.17-21.92,3.05-35.36-13.16-.62-.75-12.29-15.31-7.48-33,4.49-16.56,21.41-28.67,41.29-28.36" transform="translate(-117.3 -250.26)"/><line class="cls-1" x1="236.88" y1="49.48" x2="220.66" y2="49.48"/></svg>