<svg xmlns="http://www.w3.org/2000/svg" viewBox="0 0 279 99.41"><defs><style>.cls-1{fill:none;stroke:#333;stroke-miterlimit:10;stroke-width:6px;}</style></defs><g id="Layer_1" data-name="Layer 1"><path class="cls-1" d="M163,308.37c-.2-1.29-.37-3.68-.51-5-.62-5.9-.65-12.11.62-17.5a54.21,54.21,0,0,1,15.23-26.59" transform="translate(-95.99 -250.26)"/><path class="cls-1" d="M167.28,325.19a97.17,97.17,0,0,1-3.36-12.59" transform="translate(-95.99 -250.26)"/><path class="cls-1" d="M213.44,340.61l1.16-78.49c-18.19-1.38-21.89,0-21.89,0-25.54,6.2-20.78,46.25-14.49,46.25l15.7,0s6.56,2.45-20.35,29.35" transform="translate(-95.99 -250.26)"/><path class="cls-1" d="M277.05,302c1.25,11.83.17,33-14.51,39.36" transform="translate(-95.99 -250.26)"/><path class="cls-1" d="M273.77,283.61a107.38,107.38,0,0,1,2.61,14.25" transform="translate(-95.99 -250.26)"/><path class="cls-1" d="M318.39,268.21c-6.12-8.91-12,.3-7.89,4.89,8.15,9,20.48-3.52,12.49-11.27-4.24-4.11-15.55-9-19.49,1.22-10.84,28.19,26.7,74.5,25.46,73.07-.66-.77-8-9.81-29.12-36.81-10.11-12.93-32.49-43.24-30.76-40.61.93,1.4,11.34,16.26,15.45,25.81,5.49,12.74,7.14,52.61-13.85,62.45" transform="translate(-95.99 -250.26)"/><path class="cls-1" d="M372.65,314.87s-20.52,25.74-39,8.84c-7.29-6.66-15.12-18.12-10.7-32.06,5.75-18.14,31.55-23.42,34.07-23.42" transform="translate(-95.99 -250.26)"/><path class="cls-1" d="M106,330.13c8.76,6.33,11.23-4.33,5.79-7.25-10.7-5.76-18.11,10.18-8,14.8,5.37,2.45,12,.69,12,.69l1.84-.67c13.94-6.71,13-71.91,10.84-75.88-2.67-4.86,22,76.52,25,75.88,2.26-.47-11.76-42.38,9-75.58a69.31,69.31,0,0,1,7.48-9.84" transform="translate(-95.99 -250.26)"/><path class="cls-1" d="M325.33,313.28s5.9,2.07,14.9-3a22.06,22.06,0,0,0,9.67-12" transform="translate(-95.99 -250.26)"/></g><g id="Layer_4" data-name="Layer 4"><path class="cls-1" d="M223.71,262.12l-1.23,75.59c33,0,44.14-2.2,44.14-37.8C266.62,276,260.37,262.12,223.71,262.12Z" transform="translate(-95.99 -250.26)"/></g></svg>